<?xml version="1.0" encoding="UTF-8" standalone="no"?>
<svg
   xmlns:dc="http://purl.org/dc/elements/1.1/"
   xmlns:cc="http://creativecommons.org/ns#"
   xmlns:rdf="http://www.w3.org/1999/02/22-rdf-syntax-ns#"
   xmlns:svg="http://www.w3.org/2000/svg"
   xmlns="http://www.w3.org/2000/svg"
   xmlns:sodipodi="http://sodipodi.sourceforge.net/DTD/sodipodi-0.dtd"
   xmlns:inkscape="http://www.inkscape.org/namespaces/inkscape"
   version="1.1"
   id="svg833"
   width="1344"
   height="1152"
   viewBox="0 0 1344 1152"
   sodipodi:docname="banner.svg"
   inkscape:version="1.0.2-2 (e86c870879, 2021-01-15)">
  <metadata
     id="metadata839">
    <rdf:RDF>
      <cc:Work
         rdf:about="">
        <dc:format>image/svg+xml</dc:format>
        <dc:type
           rdf:resource="http://purl.org/dc/dcmitype/StillImage" />
        <dc:title></dc:title>
      </cc:Work>
    </rdf:RDF>
  </metadata>
  <defs
     id="defs837" />
  <sodipodi:namedview
     pagecolor="#ffffff"
     bordercolor="#666666"
     borderopacity="1"
     objecttolerance="10"
     gridtolerance="10"
     guidetolerance="10"
     inkscape:pageopacity="0"
     inkscape:pageshadow="2"
     inkscape:window-width="1920"
     inkscape:window-height="1009"
     id="namedview835"
     showgrid="false"
     inkscape:zoom="0.7109375"
     inkscape:cx="672"
     inkscape:cy="576"
     inkscape:window-x="-8"
     inkscape:window-y="-8"
     inkscape:window-maximized="1"
     inkscape:current-layer="g841" />
  <g
     inkscape:groupmode="layer"
     inkscape:label="Image"
     id="g841">
    <path
       style="fill:#cb6b20;fill-opacity:1"
       d="M 203.01952,879.99001 91.981633,798.31493 385.24511,798.06325 c 161.29491,-0.13842 425.55218,-0.13842 587.23838,0 l 293.97491,0.25168 -109.2192,81.09027 -109.2191,81.09027 -366.98136,0.58481 -366.98134,0.58481 z m 611.464,30.65589 c 23.22004,-11.09769 15.63855,-41.70642 -10.79881,-43.598 -3.82803,-0.27389 -8.246,0.002 -10.03659,0.62576 l -3.19855,1.11502 0.69324,-4.73687 c 0.38128,-2.60529 1.14378,-6.87438 1.69444,-9.48688 l 1.0012,-4.75 h 14.41713 14.41714 v -4 -4 h -18.46146 -18.46145 l -0.9729,3.75 c -2.26178,8.71802 -6.13684,32.61447 -5.40248,33.3157 1.7242,1.64642 6.01882,1.26199 10.56529,-0.94575 9.13674,-4.43674 16.63318,-3.78053 23.25771,2.03589 6.4103,5.62831 6.84606,13.07441 1.14514,19.5674 -7.55754,8.60756 -20.13357,8.51118 -29.80727,-0.22843 -2.12759,-1.92214 -4.20455,-3.49313 -4.61546,-3.49107 -1.29697,0.006 -7.24712,3.92991 -7.24712,4.77861 0,1.53095 7.50002,8.00561 11.71697,10.1151 9.42562,4.71508 20.13875,4.69141 30.09383,-0.0665 z m -136.23438,1.70218 c 13.29305,-3.94761 20.56297,-16.08376 16.07254,-26.83089 -1.40287,-3.35753 -7.85784,-9.70226 -9.87085,-9.70226 -0.63376,0 0.033,-1.2375 1.48175,-2.75 5.37495,-5.61157 7.33393,-15.26727 4.29122,-21.15122 -3.54363,-6.85263 -13.53881,-12.09878 -23.05108,-12.09878 -9.60665,0 -19.50796,5.24713 -23.13442,12.25993 -2.98995,5.78193 -0.94419,17.11275 3.60231,19.95209 1.4411,0.89998 1.08552,1.57235 -2.74606,5.19254 -9.93205,9.38411 -8.34969,24.40903 3.33094,31.62805 7.94761,4.91189 20.38719,6.36226 30.02365,3.50054 z m -18.89262,-7.98196 c -6.4285,-2.29269 -10.6838,-7.53572 -10.6838,-13.16367 0,-3.62813 4.20863,-10.62603 7.4263,-12.34808 2.23473,-1.19599 3.62369,-1.16333 10.07613,0.2369 10.4674,2.27151 16.03835,4.93494 17.91571,8.56535 5.59379,10.81721 -10.59357,21.75273 -24.73434,16.7095 z m 10.8162,-33.04381 c -0.55,-0.1841 -3.60359,-1.11524 -6.78575,-2.06919 -6.12717,-1.83681 -10.71425,-5.93169 -10.71425,-9.56458 0,-6.15874 6.12246,-11.06819 13.92901,-11.16934 9.89553,-0.1282 16.51191,6.54302 14.1866,14.30419 -2.08962,6.97452 -5.946,10.06196 -10.61561,8.49892 z m 77.75326,40.49905 c 9.40291,-3.51808 15.74674,-12.03509 15.74674,-21.14105 0,-17.59073 -20.44966,-28.54933 -37.35908,-20.02004 -3.10251,1.56494 -5.64092,2.5451 -5.64092,2.17814 0,-3.0541 3.90011,-10.70982 7.17522,-14.08459 4.82031,-4.96701 10.74155,-7.75206 18.54066,-8.72059 l 5.78412,-0.7183 0.31037,-3.75 0.31036,-3.75 h -5.37886 c -15.75375,0 -31.11245,10.58678 -35.27533,24.31533 -2.14316,7.06783 -3.03833,24.98193 -1.52535,30.52531 1.62963,5.97076 7.95993,12.5948 14.40473,15.07315 6.83954,2.63014 16.02597,2.66729 22.90734,0.0926 z m -16.43448,-6.93622 c -12.63712,-4.05548 -14.8098,-19.907 -3.63785,-26.54115 5.07059,-3.01102 13.42338,-2.71846 18.511,0.64837 4.09231,2.70816 7.30807,7.91043 7.30807,11.82257 0,3.79494 -3.16999,9.08412 -6.93949,11.57865 -4.01526,2.65718 -11.11115,3.81714 -15.24173,2.49156 z m -157.31878,3.42979 v -4 l -17.25,-0.27361 -17.25,-0.27362 v -3.41128 c 0,-7.58776 2.26365,-9.85272 19.03045,-19.04149 11.67051,-6.39583 17.53224,-12.40099 18.5174,-18.97049 1.33232,-8.88459 -2.26283,-15.76085 -10.2659,-19.63507 -8.25557,-3.99645 -26.68184,-2.56791 -34.04825,2.63967 -2.20875,1.56144 -2.22232,1.67658 -0.53439,4.53401 2.02554,3.42897 2.96129,3.51362 10.30069,0.93188 13.05678,-4.59292 24,-0.6727 24,8.59759 0,5.97543 -2.92489,8.98944 -14.69876,15.14662 -19.45853,10.1759 -22.24101,13.66736 -22.27928,27.9561 -0.0181,6.76557 0.28422,8.38058 1.72804,9.23068 1.0841,0.63829 9.55057,0.94259 22.25,0.79969 l 20.5,-0.23068 z m 56.5,0.5 v -4 h -8 -8 v -32.5 -32.5 l -2.25,-0.0196 c -1.2375,-0.0108 -6.20766,1.66503 -11.0448,3.72404 -8.01282,3.41079 -8.7686,3.96825 -8.5,6.26962 0.2723,2.33317 0.73367,2.54885 6.0448,2.82586 l 5.75,0.29991 v 25.95009 25.9501 h -7.53138 c -8.17261,0 -9.25319,0.73791 -8.05741,5.50224 l 0.62689,2.49774 h 20.48095 20.48095 z M 422.66625,777.88059 c -7.16403,-2.1792 -14.63873,-8.55461 -18.2496,-15.56566 -2.83181,-5.49839 -3.5155,-16.78732 -1.39381,-23.01415 l 1.60125,-4.6994 -8.79253,-13.64322 c -4.83589,-7.50378 -9.12651,-14.20573 -9.5347,-14.89323 -0.5432,-0.91487 0.32405,-1.25 3.23474,-1.25 h 3.97691 l 7.3321,11.48306 c 4.03266,6.31569 7.696,11.49069 8.14075,11.5 0.44475,0.009 2.69475,-1.4409 5,-3.2227 2.30525,-1.78181 4.34656,-3.3245 4.53624,-3.42822 0.18969,-0.10372 -1.63375,-3.25838 -4.05208,-7.01036 -2.41833,-3.75198 -4.73759,-7.38428 -5.1539,-8.07178 -0.55592,-0.91804 0.30815,-1.25 3.25363,-1.25 3.86754,0 4.17207,0.24965 8.53885,7 l 4.52828,7 h 4.77677 c 2.62723,0 6.23246,0.41749 8.01164,0.92775 3.20306,0.91862 3.26877,0.86701 6.68389,-5.25 5.89427,-10.55758 7.00026,-9.58895 -11.30664,-9.90251 l -16.06928,-0.27524 -80.30967,-126.5 -80.30967,-126.5 26.62432,-40.5 26.62433,-40.5 96.40733,-0.60479 c 53.02402,-0.33264 124.60241,-0.67014 159.06309,-0.75 l 62.65576,-0.14521 7.55352,-12.3121 c 9.70092,-15.81234 9.52596,-15.2778 5.70339,-17.4257 -2.33107,-1.30982 -3.00108,-2.27563 -2.60996,-3.7622 0.28941,-1.1 1.07225,-4.5999 1.73963,-7.77756 l 1.21343,-5.77757 -3.50716,-3.50716 -3.50716,-3.50716 -6.44861,1.51994 c -3.54674,0.83597 -6.91439,1.5266 -7.48368,1.53473 -0.5693,0.008 -2.3673,-2.448 -3.99557,-5.45807 l -2.96048,-5.47285 5.79013,-5.85119 5.79014,-5.85119 -0.95577,-4.25382 c -0.52568,-2.33961 -1.13356,-4.43161 -1.35085,-4.6489 -0.21729,-0.21729 -3.29475,-1.48199 -6.8388,-2.81044 -7.14154,-2.67694 -7.74482,-3.81103 -6.48749,-12.19553 l 0.62599,-4.17438 7.58042,-1.29667 c 7.47705,-1.27899 7.6051,-1.35181 9.39074,-5.34017 2.00426,-4.47665 2.12846,-4.05601 -3.36102,-11.38297 l -3.93411,-5.25096 4.20549,-5.45109 4.20549,-5.4511 5.16538,2.05401 c 2.84096,1.12971 6.26574,2.4804 7.61062,3.00154 1.88756,0.73142 3.02791,0.51384 5,-0.95402 2.29249,-1.70633 2.60609,-2.75523 3.05476,-10.21733 l 0.5,-8.31579 5,-1.75465 c 2.75,-0.96506 5.675,-1.77756 6.5,-1.80555 0.825,-0.028 3.4114,2.63712 5.74755,5.92249 3.902,5.48746 4.55281,5.97271 8,5.96496 3.59458,-0.008 3.89752,-0.28155 7.20054,-6.5 3.8114,-7.17555 4.17781,-7.32615 12.55191,-5.15904 l 5,1.29393 0.72434,7.93143 c 1.03766,11.36235 3.78539,12.88502 13.42965,7.44212 2.92364,-1.65 5.92709,-3 6.67432,-3 0.74724,0 3.31274,2.31747 5.70111,5.14995 l 4.34249,5.14994 -2.36783,4.10006 c -6.04577,10.4687 -5.69519,9.19662 -3.38841,12.29476 1.85384,2.48981 2.89027,2.86857 9.21582,3.36791 3.91988,0.30944 7.39156,0.82711 7.71483,1.15038 0.52768,0.52768 3.33026,11.20685 3.41806,13.02444 0.0196,0.40558 -3.11438,2.32374 -6.96438,4.26257 -6.89291,3.47122 -7,3.58566 -7,7.48103 0,3.62942 0.44789,4.28676 5.42727,7.96524 2.985,2.20515 5.67531,4.41069 5.97845,4.90119 0.30315,0.4905 -0.3894,3.67702 -1.53899,7.08116 l -2.09017,6.18934 -7.70424,-0.67205 -7.70425,-0.67205 -2.73729,3.25309 c -1.71873,2.04259 -2.49127,3.85217 -2.07614,4.86307 0.36364,0.88549 1.58037,4.27581 2.70385,7.53404 l 2.04268,5.92406 -2.80555,2.23707 -2.80556,2.23708 10.63021,16.32434 10.63021,16.32434 152.29883,-0.33919 152.29877,-0.3392 28.2129,42.66451 28.2129,42.66451 -81.2539,125.68921 -81.2539,125.68921 -11.23304,0.28275 c -6.17817,0.15551 -11.23304,0.51094 -11.23304,0.78984 0,0.2789 0.93619,2.34217 2.08042,4.58504 1.98573,3.89236 2.24743,4.05034 5.75,3.47117 2.01827,-0.33373 5.24458,-0.61731 7.16958,-0.63017 2.88694,-0.0193 3.89572,-0.63427 5.75919,-3.51101 1.95509,-3.01816 2.79343,-3.48762 6.22798,-3.48762 h 3.96878 l -2.96044,4.66813 -2.96044,4.66813 2.23246,1.483 c 1.22786,0.81564 3.60515,2.76621 5.28288,4.33458 l 3.05041,2.85159 5.78791,-9.00271 c 5.69207,-8.85367 5.85364,-9.00272 9.7586,-9.00272 2.90566,0 3.77166,0.33528 3.22864,1.25 -0.40813,0.6875 -3.81564,6.02793 -7.57224,11.86762 l -6.83017,10.61762 1.60191,6.25287 c 3.48954,13.62101 -3.31219,28.3112 -15.97749,34.50775 -13.55189,6.63032 -30.32805,1.15292 -37.92243,-12.38164 -2.43351,-4.33697 -3.10906,-6.88941 -3.469,-13.10709 -0.39538,-6.82999 -0.12887,-8.43012 2.30867,-13.86169 1.65793,-3.69437 4.5016,-7.74976 7.13861,-10.18047 l 4.38297,-4.04008 -3.2684,-5.95058 -3.2684,-5.95058 -224.74088,-0.0119 -224.74089,-0.0119 -4.85804,9.75 -4.85804,9.75 3.47436,3.40316 c 8.51874,8.34413 11.07722,22.26907 6.08101,33.09684 -3.5859,7.77133 -7.02681,11.42879 -14.05731,14.94197 -4.92516,2.46114 -7.30841,3.04125 -12.20993,2.97208 -3.34966,-0.0473 -7.21819,-0.42905 -8.59675,-0.84839 z M 891.92184,610.53637 c 26.34552,-13.02066 32.496,-47.6079 12.09388,-68.01002 -4.97825,-4.97824 -14.21212,-10.22104 -19.87185,-11.28281 l -3.30777,-0.62054 11.06165,-15.11557 c 6.08391,-8.31356 11.89547,-16.48288 12.91457,-18.15404 2.65882,-4.35999 2.39086,-8.69118 -0.71855,-11.61415 l -2.57895,-2.42431 -28.51514,-0.29436 c -21.12116,-0.21803 -28.89099,0.0176 -29.96465,0.90863 -1.04342,0.86596 -1.36726,2.90953 -1.15591,7.29436 l 0.2936,6.09137 21.67246,0.5 21.67246,0.5 -15.39094,21.5 c -8.46501,11.825 -15.40512,22.20087 -15.42246,23.0575 -0.0339,1.67427 8.1492,7.9425 10.36881,7.9425 0.73803,0 2.41237,-1.60639 3.72077,-3.56976 2.2747,-3.41341 2.57601,-3.54435 6.8789,-2.98946 5.97401,0.7704 14.28752,4.92377 17.50189,8.74384 9.96871,11.84714 9.69989,28.1837 -0.63907,38.83729 -12.09501,12.46309 -29.96004,11.16635 -44.08789,-3.20014 -3.14879,-3.20197 -6.40528,-5.82177 -7.23665,-5.82177 -2.20331,0 -9.3021,5.20706 -9.8631,7.23472 -1.08526,3.92255 9.59529,14.85383 19.29939,19.75244 8.37194,4.22614 12.01846,4.95125 23.6165,4.69609 9.4212,-0.20727 10.59339,-0.47026 17.65805,-3.96181 z m -195.85611,0.69677 c 0.78457,-2.04454 0.78457,-9.79188 0,-11.83642 -0.53279,-1.38842 -3.91258,-1.58179 -27.64753,-1.58179 h -27.04053 l 0.658,-8.56037 c 0.69667,-9.06347 2.67692,-14.33466 6.78973,-18.07352 1.29103,-1.17363 9.71725,-6.93256 18.72494,-12.79761 24.02765,-15.64479 30.92277,-23.42954 33.18301,-37.46436 1.93292,-12.00236 -2.14338,-24.59527 -10.1913,-31.48399 -8.62933,-7.38639 -24.28983,-10.32613 -38.67796,-7.26052 -8.88483,1.89306 -21.82674,7.91616 -22.66161,10.54661 -0.72125,2.27244 4.30417,11.09376 6.31999,11.09376 0.75037,0 4.12865,-1.29718 7.50728,-2.88262 13.07207,-6.13414 25.02284,-6.65438 33.39548,-1.45377 6.06393,3.76657 8.73804,8.94405 8.69578,16.83639 -0.0581,10.84419 -4.30177,15.54141 -26.44228,29.26803 -18.06123,11.19755 -26.66911,19.00198 -29.48399,26.73197 -1.36672,3.75316 -1.93376,8.90198 -2.27393,20.64746 -0.4311,14.88532 -0.35077,15.74986 1.64937,17.75 2.05018,2.05018 2.90926,2.10254 34.49555,2.10254 28.6157,0 32.46379,-0.18445 33,-1.58179 z m 87.51603,-35.31277 c 15.62984,-4.86455 27.18841,-17.6332 30.61947,-33.82505 1.75617,-8.28772 2.03364,-51.83533 0.3877,-60.84673 -2.42457,-13.27431 -11.85018,-26.31796 -23.17613,-32.07236 -22.79525,-11.58161 -49.31189,-4.01521 -62.03639,17.7018 -5.01019,8.55093 -5.70369,13.8931 -5.70369,43.9369 0,35.6023 1.27944,41.07108 12.34642,52.77277 5.66018,5.9848 11.53187,9.79745 19.14052,12.42846 6.97174,2.41077 20.51517,2.36513 28.4221,-0.0958 z M 760.3754,561.37261 c -9.43955,-3.36717 -17.3521,-12.03061 -19.70904,-21.5794 -0.72549,-2.9392 -1.00718,-13.9636 -0.80487,-31.5 l 0.31123,-26.97828 2.69469,-5.1076 c 5.96008,-11.29695 17.94235,-18.27732 29.35273,-17.09966 9.43532,0.97381 19.06351,7.63344 23.29997,16.11614 3.5684,7.14503 4.40412,15.81709 3.90383,40.50921 -0.54888,27.09079 -1.20707,29.68597 -9.67712,38.15601 -8.30206,8.30206 -19.25405,11.09253 -29.37142,7.48358 z m -302.93711,-14.30768 0.26558,-28.25 20.23442,-0.0153 c 11.12894,-0.008 20.82026,-0.3869 21.53627,-0.84106 0.90406,-0.57343 1.20962,-2.78405 1,-7.23469 l -0.30184,-6.40895 -21.25,-0.26989 -21.25,-0.26989 v -21.48011 -21.48011 h 27.54381 27.54381 l -0.29381,-7.25 -0.29381,-7.25 -32.78175,-0.26371 -32.78175,-0.2637 -2.46825,2.46825 -2.46825,2.46825 v 61.87879 c 0,34.03333 0.31784,62.19663 0.70631,62.5851 0.38847,0.38847 3.87597,0.57597 7.75,0.41667 l 7.04369,-0.28965 z m 138.03627,21.84106 c 0.20962,-4.45064 -0.0959,-6.66126 -1,-7.23469 -0.71601,-0.45416 -8.75865,-0.83264 -17.87253,-0.84106 -16.08124,-0.0149 -16.73084,-0.0965 -21.99313,-2.76531 -9.31466,-4.72394 -13.91928,-12.82216 -13.9306,-24.5 l -0.006,-5.75 h 31 c 37.71583,0 35.00591,1.1037 34.98813,-14.25 -0.007,-5.6375 -0.6289,-12.56742 -1.38306,-15.39981 -3.16552,-11.88883 -11.14584,-21.52199 -22.41286,-27.05491 -5.18455,-2.54598 -6.67325,-2.79528 -16.69221,-2.79528 -10.21373,0 -11.46482,0.22029 -17.50286,3.08181 -12.79657,6.0645 -21.39852,18.26472 -23.07563,32.72833 -0.45853,3.95442 -0.83955,11.91486 -0.84672,17.68986 -0.0268,21.59214 2.79489,31.67003 11.46141,40.93525 10.1442,10.84496 17.24738,13.03094 41.4638,12.76032 l 17.5,-0.19557 z m -54.58604,-61.84106 c 0.28865,-4.02127 1.3298,-8.4053 2.57545,-10.84468 6.40046,-12.53411 21.93914,-17.48676 34.09917,-10.86844 8.45063,4.5994 12.39478,11.0229 13.66567,22.2561 l 0.70224,6.20702 h -25.76353 -25.76353 z m 190.7842,-138.82749 c 0,-0.31762 -4.23486,-7.02953 -9.4108,-14.91537 -7.18242,-10.94281 -10.76257,-15.39883 -15.1195,-18.81844 -5.88873,-4.62186 -6.47713,-4.72325 -12.70884,-2.19003 -1.69248,0.68801 -2.93491,4.07621 -4.31317,11.76238 -0.37093,2.06857 -0.9609,3.92987 -1.31105,4.13621 -0.35015,0.20634 -3.39966,0.68981 -6.77668,1.07438 l -6.14004,0.69921 -2.22361,-6.83543 c -2.48906,-7.65145 -3.54221,-8.84005 -8.68802,-9.80541 -3.2732,-0.61405 -3.97458,-0.2949 -8.01795,3.64854 -3.64968,3.55946 -20.29034,29.16312 -20.29034,31.21913 0,0.33127 21.375,0.60232 47.5,0.60232 26.125,0 47.5,-0.25987 47.5,-0.57749 z m -36.68034,-50.25911 c 16.1938,-7.97219 25.44252,-25.37286 22.67939,-42.66935 -2.16042,-13.52367 -10.29212,-24.55921 -22.53972,-30.58869 -6.5467,-3.22293 -7.48369,-3.40536 -17.49017,-3.40536 -10.21312,0 -10.83261,0.12836 -18.2057,3.77234 -12.15846,6.00904 -19.41436,15.82055 -22.00609,29.7569 -2.8675,15.41918 4.97864,33.04343 18.14593,40.75998 8.46339,4.95987 13.75906,6.28844 23.69844,5.94542 7.88993,-0.27229 9.98261,-0.74776 15.71792,-3.57124 z m -30.86003,-6.97181 c -20.24983,-9.75012 -24.89239,-36.88926 -9.02485,-52.75681 15.96702,-15.96702 42.31044,-10.68964 51.86215,10.38955 3.21269,7.08993 3.00166,18.83254 -0.47306,26.32363 -5.46609,11.78424 -15.10669,18.12936 -28.32387,18.64184 -7.13698,0.27672 -8.65162,-0.004 -14.04037,-2.59821 z M 209.84076,704.06496 c -65.80382,-0.14361 -118.184597,-0.64121 -117.999997,-1.12097 0.18258,-0.47451 33.181957,-50.84161 73.331957,-111.9269 54.5647,-83.01619 73.28003,-110.76591 74.10884,-109.88316 0.87871,0.93589 140.98561,217.69437 143.77348,222.431 0.58271,0.99004 -5.04758,1.19887 -27.0733,1.00414 -15.29496,-0.13523 -81.0584,-0.36208 -146.14098,-0.50411 z m 109.61458,-116.00003 -75.44828,-116.75 3.49406,-5.27959 c 1.92173,-2.90378 3.8675,-5.15378 4.32393,-5 0.76257,0.25692 154.84767,242.42282 154.84767,243.36439 0,0.22836 -2.64805,0.4152 -5.88455,0.4152 h -5.88455 z m 629.96137,115.5 c 0.54388,-0.6875 34.42751,-53 75.29689,-116.25 40.8695,-63.25 75.9533,-117.53925 77.9641,-120.64278 l 3.656,-5.64279 3.1654,5.29216 3.1653,5.29216 -75.2458,116.58622 -75.24588,116.58623 -6.87244,0.0144 c -5.36007,0.0112 -6.65483,-0.26068 -5.88357,-1.2356 z m 24.25601,0.72481 c 0,-0.42469 139.26068,-216.59159 143.50648,-222.75747 1.0735,-1.55894 10.5316,12.27621 75.3605,110.23657 40.7732,61.61058 74.133,112.25028 74.133,112.53267 0,0.28238 -65.925,0.51342 -146.5,0.51342 -80.575,0 -146.49998,-0.23634 -146.49998,-0.52519 z M 173.70471,377.22462 c -35.38649,-54.77466 -64.97523,-99.83442 -65.75275,-100.13278 -2.24163,-0.86019 -3.27172,0.92103 -5.10582,8.8289 l -1.71496,7.39419 -6.631407,0.29346 -6.63141,0.29346 -2.4223,-7.29346 -2.422304,-7.29346 -4.658828,-0.91448 c -4.651312,-0.91301 -4.668486,-0.90608 -10.644517,4.29171 l -5.985688,5.20619 -3.281,-1.68999 c -1.804549,-0.9295 -4.243707,-2.3174 -5.420349,-3.08422 l -2.139351,-1.39423 1.833425,-7.12773 c 1.969806,-7.65793 1.755387,-8.76591 -2.459328,-12.70821 l -2.588249,-2.42095 -7.253574,1.56518 c -3.989465,0.86085 -7.59963,1.35594 -8.022589,1.10019 -0.422958,-0.25575 -1.9238,-2.74386 -3.335204,-5.52913 l -2.566189,-5.06413 5.625801,-5.68512 c 5.458846,-5.51641 5.606056,-5.80861 4.960416,-9.84622 -0.799136,-4.99753 -1.169891,-5.32716 -9.285697,-8.25573 l -6.369888,-2.29855 0.669942,-6.53901 c 0.368468,-3.59646 0.799152,-6.66823 0.957075,-6.82615 0.157924,-0.15793 2.9479,-0.74922 6.199947,-1.31398 8.381056,-1.45549 9.743937,-2.2268 11.238695,-6.36048 1.303379,-3.60443 1.249754,-3.76744 -3.216708,-9.77792 l -4.542185,-6.11239 1.915571,-2.60733 c 1.053564,-1.43403 2.999992,-3.93119 4.325395,-5.54924 l 2.409825,-2.94191 6.207024,2.69191 c 7.424524,3.21992 9.020244,3.30958 12.345894,0.69362 2.428935,-1.9106 2.517018,-2.33965 2.00724,-9.77715 l -0.533175,-7.77886 5.465511,-1.72285 c 3.00603,-0.94757 6.184718,-1.72285 7.063749,-1.72285 0.879031,0 3.507853,2.72234 5.841827,6.04965 3.965083,5.65261 4.474827,6.02999 7.766976,5.75 3.15951,-0.2687 3.89252,-0.93934 7.09771,-6.49375 1.96588,-3.40675 3.80215,-6.42192 4.08059,-6.70036 0.27845,-0.27845 3.495927,0.17567 7.149937,1.00916 l 6.64368,1.51543 0.63272,6.68493 c 0.348,3.67672 0.72137,7.34447 0.8297,8.15057 0.10834,0.80609 1.41301,2.14816 2.89927,2.98238 2.56615,1.44034 3.04762,1.33024 9.55681,-2.18553 l 6.85452,-3.70228 5.16637,5.23135 5.16636,5.23134 -4.01971,6.71191 c -3.85973,6.44479 -3.96016,6.82705 -2.5237,9.60487 1.64747,3.18585 4.61503,4.16033 12.66937,4.16033 4.74835,0 4.85426,0.0683 5.81394,3.75 2.79428,10.71986 2.90888,10.36461 -4.61386,14.30265 -6.99356,3.66103 -8.16848,5.41743 -6.88942,10.29906 0.30959,1.18157 3.04689,3.86279 6.08288,5.95828 3.036,2.09549 5.52,4.41794 5.52,5.16101 0,0.74308 -0.94238,3.81364 -2.09419,6.82349 l -2.09418,5.47245 -8.29587,-0.51756 c -7.80357,-0.48685 -8.33583,-0.39165 -8.96933,1.60433 -0.53132,1.67405 12.20896,22.41574 60.36367,98.27447 l 61.03713,96.15258 -1.68922,2.85963 c -0.92908,1.57279 -1.93668,2.85962 -2.23913,2.85962 -0.30244,0 -26.37461,-40.68734 -57.93815,-90.41631 l -57.38824,-90.41631 -5.34529,4.03573 -5.34528,4.03573 -3.60644,-2.75076 c -2.72695,-2.07995 -3.35958,-2.29197 -2.59419,-0.86942 0.55674,1.03474 28.47765,44.38186 62.04647,96.32694 l 61.03423,94.44559 -1.6566,2.80441 c -0.91113,1.54242 -1.92609,2.8044 -2.25546,2.8044 -0.32937,0 -29.55145,-44.81564 -64.93794,-99.59031 z M 100.05307,265.30408 c 20.21726,-5.26593 33.28464,-25.32216 29.7871,-45.71823 -3.81876,-22.2693 -24.48827,-37.44312 -46.062215,-33.81501 -22.849405,3.84259 -38.007879,24.5548 -34.156551,46.67076 4.181499,24.01195 27.092782,38.94149 50.431666,32.86248 z M 79.672727,257.20773 C 56.7402,248.88582 50.140244,218.27343 67.832498,202.28954 c 16.719804,-15.10534 40.882512,-10.184 51.009002,10.38926 3.43223,6.97302 3.30127,19.59415 -0.28158,27.13613 -3.1737,6.6807 -8.69449,12.33372 -15.3872,15.75576 -6.430487,3.28796 -16.934227,4.01967 -23.499993,1.63704 z M 1116.327,474.41009 c -0.9099,-1.38864 -1.6543,-2.81088 -1.6543,-3.16055 0,-0.34966 26.1,-41.05296 58,-90.45177 31.9,-49.39881 58,-90.04186 58,-90.31787 0,-0.27602 -1.6167,-1.50104 -3.5927,-2.72227 -3.4977,-2.1617 -3.5749,-2.34238 -2.9178,-6.83156 0.4246,-2.90004 0.3253,-4.24006 -0.2674,-3.61114 -0.5184,0.55 -27.1921,41.64414 -59.2749,91.32031 l -58.3325,90.32031 -1.7851,-2.32031 c -0.9818,-1.27617 -1.7951,-2.848 -1.8074,-3.49296 -0.012,-0.64496 26.9784,-42.93186 59.9791,-93.97089 57.1475,-88.38448 59.9181,-92.8814 58.25,-94.54675 -1.6108,-1.6082 -2.2328,-1.63346 -7.7513,-0.31473 -8.7596,2.09323 -8.8022,2.07833 -11.8569,-4.15009 l -2.7735,-5.65511 5.6507,-5.71026 c 5.6437,-5.70321 5.6496,-5.71566 4.7866,-10.07937 -0.8476,-4.28601 -0.9966,-4.41996 -7.8355,-7.04232 -7.7361,-2.9664 -8.1513,-3.69616 -6.719,-11.80731 l 0.7857,-4.44947 7.4809,-1.55053 c 6.9932,-1.44943 7.6102,-1.79184 9.4626,-5.25132 l 1.9815,-3.70079 -4.2315,-6.00035 c -2.3274,-3.30019 -4.2316,-6.53849 -4.2316,-7.19622 0,-1.74598 6.9143,-9.90185 8.3945,-9.90185 0.6934,0 4.0764,1.14414 7.5179,2.54253 6.2071,2.52217 6.2825,2.52759 9.4224,0.67647 l 3.1652,-1.86606 -0.3394,-8.00646 -0.3395,-8.00645 4.3395,-1.62144 c 9.1704,-3.42653 9.0299,-3.45951 13.7154,3.22015 3.9716,5.66188 4.5101,6.06126 8.1735,6.06126 3.7847,0 4.0263,-0.20714 6.9137,-5.92715 1.6456,-3.25994 3.4942,-6.2375 4.1079,-6.6168 0.6138,-0.37931 3.8114,-0.11764 7.1058,0.5815 6.9918,1.48374 7.8231,2.75916 7.8231,12.00187 0,5.55148 0.1812,6.00293 2.9934,7.45716 2.889,1.49396 3.2382,1.4164 10.0159,-2.22432 l 7.0226,-3.77226 5.0811,5.2774 c 4.7711,4.95536 4.9938,5.41303 3.6495,7.5 -0.7874,1.22243 -2.6173,4.26366 -4.0665,6.7583 l -2.6349,4.5357 1.9548,3.2143 c 1.7857,2.93635 2.4099,3.22292 7.2194,3.31398 8.9309,0.1691 10.1125,0.83601 11.4187,6.44489 1.8643,8.00561 1.7972,8.19564 -3.904,11.05258 -7.2435,3.62984 -8.75,5.17476 -8.75,8.97336 0,2.83269 0.7835,3.82928 5.9709,7.59501 3.2839,2.38397 5.949,5.00949 5.9224,5.83449 -0.026,0.825 -0.8487,3.75 -1.8269,6.5 l -1.7786,5 -8.0347,-0.29657 c -7.6858,-0.2837 -8.1262,-0.18016 -10.1439,2.38486 -2.6168,3.32671 -2.6329,5.00909 -0.1092,11.41171 1.1,2.79072 1.9824,5.84488 1.961,6.78702 -0.038,1.65334 -7.8881,8.21298 -9.8292,8.21298 -0.5237,0 -3.2294,-1.8 -6.0126,-4 -5.4926,-4.3417 -7.6799,-4.79566 -12.098,-2.51097 -3.0632,1.58403 -3.2135,1.89948 -5.0908,10.67913 l -1.212,5.66815 -5.8059,0.67384 c -3.1932,0.37061 -6.2447,0.40255 -6.7812,0.071 -0.5365,-0.33157 -1.9488,-3.52759 -3.1383,-7.10227 -2.232,-6.70709 -3.285,-7.77959 -8.6309,-8.79059 -2.2608,-0.42756 -3.5465,-0.11752 -4.5997,1.10915 -0.804,0.93642 -29.021,44.45258 -62.7046,96.70258 -33.6836,52.25 -61.8068,95.58949 -62.496,96.30998 -1.0249,1.07134 -1.5545,0.85003 -2.9075,-1.21482 z m 162.5379,-207.94534 c 11.1946,-5.38938 19.2391,-15.08036 22.4129,-27.00001 1.7945,-6.73993 1.7499,-12.85788 -0.1474,-20.18972 -9.3689,-36.2042 -59.0296,-41.48189 -75.5009,-8.02386 -5.7385,11.65644 -5.8819,24.53491 -0.4017,36.06377 4.5506,9.57335 10.9908,15.43078 22.1099,20.10934 5.1465,2.16551 7.0149,2.41541 15.835,2.11803 8.4232,-0.28401 10.8975,-0.76927 15.6922,-3.07755 z m -22.9697,-4.70124 c -9.7559,-1.94702 -18.585,-9.0478 -23.3913,-18.81246 -3.4322,-6.97302 -3.3012,-19.59416 0.2816,-27.13613 3.1494,-6.62958 8.6356,-12.27567 15.3872,-15.83558 4.2568,-2.24447 6.2635,-2.63845 13.5,-2.65039 6.9918,-0.0115 9.3735,0.41589 13.4229,2.40888 6.5721,3.23459 12.203,9.04798 15.4291,15.92913 2.2133,4.72082 2.648,7.04327 2.648,14.14796 0,7.2706 -0.4021,9.31873 -2.7798,14.16055 -6.2307,12.6877 -21.2497,20.43199 -34.4977,17.78804 z"
       id="path845" />
  </g>
</svg>
