<?xml version="1.0" encoding="UTF-8" standalone="no"?>
<svg
   width="297mm"
   height="210mm"
   viewBox="0 0 297 210"
   version="1.1"
   id="svg5"
   inkscape:version="1.1.2 (0a00cf5339, 2022-02-04)"
   sodipodi:docname="banner.svg"
   xmlns:inkscape="http://www.inkscape.org/namespaces/inkscape"
   xmlns:sodipodi="http://sodipodi.sourceforge.net/DTD/sodipodi-0.dtd"
   xmlns="http://www.w3.org/2000/svg"
   xmlns:svg="http://www.w3.org/2000/svg"
   xmlns:rdf="http://www.w3.org/1999/02/22-rdf-syntax-ns#"
   xmlns:cc="http://creativecommons.org/ns#"
   xmlns:dc="http://purl.org/dc/elements/1.1/">
  <metadata
     id="metadata26">
    <rdf:RDF>
      <cc:Work
         rdf:about="">
        <dc:format>image/svg+xml</dc:format>
        <dc:type
           rdf:resource="http://purl.org/dc/dcmitype/StillImage" />
      </cc:Work>
    </rdf:RDF>
  </metadata>
  <sodipodi:namedview
     id="namedview7"
     pagecolor="#ffffff"
     bordercolor="#666666"
     borderopacity="1.0"
     inkscape:pageshadow="2"
     inkscape:pageopacity="0.0"
     inkscape:pagecheckerboard="0"
     inkscape:document-units="mm"
     showgrid="false"
     inkscape:zoom="0.66449955"
     inkscape:cx="468.77383"
     inkscape:cy="403.31104"
     inkscape:window-width="1920"
     inkscape:window-height="1008"
     inkscape:window-x="0"
     inkscape:window-y="0"
     inkscape:window-maximized="1"
     inkscape:current-layer="text5031"
     inkscape:document-rotation="0" />
  <defs
     id="defs2" />
  <g
     inkscape:label="Layer 1"
     inkscape:groupmode="layer"
     id="layer1">
    <path
       inkscape:connector-curvature="0"
       id="path9633"
       d="m 143.08984,141.35079 c -0.3467,-0.20225 -0.51918,-0.66336 -2.62966,-7.02992 -1.47358,-4.44526 -1.76337,-5.17588 -2.19808,-5.54165 -0.2754,-0.23174 -0.55121,-0.42246 -0.61294,-0.42383 -0.0617,-0.001 -1.42471,-0.3013 -3.02887,-0.66648 -3.06608,-0.69802 -3.79006,-0.77818 -4.38595,-0.48564 -0.20022,0.0983 -2.31404,2.16257 -4.69737,4.58728 -4.16711,4.23946 -4.35755,4.40842 -4.96475,4.40462 -0.49866,-0.003 -1.47818,-0.48107 -4.65863,-2.27309 -5.18233,-2.92 -5.26352,-2.97293 -5.40445,-3.52264 -0.0833,-0.32504 0.32983,-2.23582 1.42154,-6.57412 l 1.53904,-6.11588 -0.3368,-0.66017 c -0.52566,-1.0304 -4.75958,-5.31852 -5.43558,-5.50519 -0.44361,-0.12249 -1.15503,-0.019 -3.44307,0.50073 -6.452748,1.46578 -8.846726,1.97976 -9.221312,1.97976 -0.216717,0 -0.579641,-0.16875 -0.806498,-0.375 -0.226858,-0.20625 -1.440867,-2.38944 -2.697797,-4.85153 -2.61636,-5.12495 -2.695364,-5.41259 -1.73883,-6.33094 0.319283,-0.30653 2.365091,-2.22918 4.546241,-4.272548 3.885312,-3.63987 4.450932,-4.27795 4.450932,-5.02119 0,-0.73044 -1.045459,-6.07657 -1.276725,-6.52875 -0.293533,-0.57393 -1.368554,-1.08854 -5.056604,-2.42058 -1.512498,-0.54628 -3.866383,-1.39589 -5.230854,-1.88803 l -2.480856,-0.8948 0.09195,-2.085102 c 0.05057,-1.146807 0.29851,-3.801255 0.550974,-5.898772 0.391288,-3.250872 0.511424,-3.874578 0.814082,-4.226442 0.388585,-0.451754 0.552304,-0.491984 5.58804,-1.373125 5.934001,-1.038314 6.764273,-1.213345 7.414233,-1.563014 0.62988,-0.338861 0.7274,-0.506513 1.884724,-3.240147 1.10589,-2.612152 1.20385,-2.93274 1.04347,-3.414748 -0.0973,-0.292572 -0.82612,-1.394448 -1.61949,-2.448613 -0.793374,-1.054165 -2.443091,-3.242141 -3.666048,-4.862168 -1.841744,-2.439722 -2.223559,-3.042965 -2.223559,-3.513093 0,-0.598763 -0.220304,-0.298256 4.734463,-6.458053 2.591414,-3.221654 2.532624,-3.166662 3.385404,-3.166662 0.39829,0 1.00301,0.12142 1.34381,0.269825 0.70791,0.308262 4.24762,1.773822 5.36964,2.223215 0.41251,0.165215 1.75838,0.721866 2.99085,1.237004 1.23247,0.51514 2.37871,0.936616 2.54721,0.936616 0.4317,0 1.63056,-0.670317 3.3786,-1.889061 1.86897,-1.303061 2.12193,-1.728792 1.99703,-3.360932 -0.0491,-0.641666 -0.20119,-2.666663 -0.33797,-4.499995 -0.13679,-1.83333 -0.32125,-4.062422 -0.40992,-4.953535 -0.17772,-1.786198 -0.0703,-2.324091 0.52785,-2.644239 0.84138,-0.45029 10.7603,-3.652212 11.31383,-3.652212 0.82756,0 1.14986,0.37058 4.17695,4.802577 2.72339,3.987333 3.06847,4.477561 3.34629,4.753677 0.1544,0.153473 0.32861,0.429854 0.38711,0.614183 0.0585,0.184328 0.38384,0.476698 0.72297,0.649709 0.5423,0.276661 0.87725,0.303779 2.77955,0.225034 2.42842,-0.100523 2.9258,-0.265403 3.25499,-1.078998 0.1223,-0.302239 0.2677,-0.587026 0.32313,-0.632859 0.0554,-0.04583 0.71958,-1.245832 1.4759,-2.666663 0.75634,-1.420832 1.44613,-2.69583 1.53288,-2.83333 0.0868,-0.1375 0.56501,-1.043847 1.06279,-2.014106 0.49777,-0.970259 1.11247,-2.010625 1.366,-2.311923 0.44218,-0.525506 0.49868,-0.544201 1.38743,-0.459018 0.75724,0.07258 8.05356,1.743032 10.79311,2.471021 1.287,0.341995 1.2759,0.30278 1.49616,5.289684 0.10789,2.44255 0.20479,5.265997 0.21531,6.27433 0.0229,2.188252 0.22014,2.671571 1.39423,3.416154 1.36472,0.865479 3.08054,1.667173 3.56814,1.667173 0.40811,0 4.28595,-2.059268 9.8287,-5.219358 2.27516,-1.297146 2.10834,-1.365142 5.75241,2.344362 5.02956,5.119855 5.62841,5.792622 5.62801,6.322771 0,0.43556 -0.57894,1.463801 -4.90628,8.718875 -1.31641,2.207037 -1.59336,2.74619 -1.59336,3.101852 0,0.156794 0.50482,1.222402 1.12185,2.368021 1.42975,2.65458 1.29346,2.58665 5.71147,2.847167 5.76669,0.340048 8.57486,0.531552 8.95623,0.610775 0.5953,0.123672 0.83568,0.682779 1.35866,3.160308 0.97573,4.622262 1.20642,5.683849 1.52647,7.024715 0.44891,1.880747 0.43415,2.80879 -0.0497,3.122897 -0.20625,0.133894 -2.80694,1.477991 -5.77934,2.986881 -4.79708,2.435162 -5.4362,2.806202 -5.68787,3.302052 -0.18471,0.36392 -0.34315,1.31209 -0.45458,2.72041 -0.23785,3.00586 -0.24415,2.99327 2.5227,5.03758 1.20491,0.89027 3.35326,2.47646 4.7741,3.52486 3.3484,2.47074 3.49999,2.61493 3.49999,3.3293 0,0.31598 -0.51767,1.97069 -1.15038,3.677138 -0.6327,1.70646 -1.47131,4.00266 -1.86356,5.10267 -0.87209,2.44552 -1.10914,2.75001 -2.14099,2.75001 -0.7405,0 -4.26579,-0.34662 -9.45603,-0.92975 -2.46764,-0.27725 -2.54082,-0.27635 -3.08332,0.0378 -0.9012,0.5219 -3.97237,4.77023 -3.97237,5.49494 0,0.22281 0.975,2.97476 2.16668,6.11544 2.14241,5.64647 2.39851,6.5823 1.95832,7.15605 -0.11458,0.14935 -2.145,1.73868 -4.51205,3.53186 -3.79705,2.87649 -4.37585,3.25989 -4.91665,3.25682 -0.5459,-0.003 -1.05052,-0.35783 -4.61295,-3.24265 -4.7383,-3.83704 -5.78899,-4.58719 -6.42498,-4.58719 -0.455,0 -5.03302,1.66807 -6.11831,2.22929 -0.2939,0.15199 -0.64955,0.49905 -0.79031,0.77127 -0.14077,0.27219 -0.59557,2.12718 -1.01068,4.12217 -0.4151,1.99499 -0.93265,4.45225 -1.1501,5.46058 -0.21744,1.00832 -0.44466,2.07616 -0.50494,2.37296 -0.15784,0.77728 -0.72184,1.14297 -1.94971,1.26415 -0.57803,0.057 -2.21344,0.21805 -3.63428,0.35779 -2.91241,0.28646 -6.27546,0.32732 -6.69708,0.0814 z m 5.50324,-24.75173 c 4.18442,-0.51319 7.89982,-1.62523 11.62558,-3.47962 4.58777,-2.28343 8.03137,-4.97145 11.39779,-8.89695 4.77603,-5.569208 7.95278,-13.692268 8.23238,-21.050538 0.15321,-4.032169 -0.5954,-9.47196 -1.71761,-12.480729 -1.46498,-3.927798 -2.5345,-6.08961 -4.3642,-8.821272 -2.11588,-3.158904 -5.48267,-6.689825 -8.06344,-8.456532 -0.45834,-0.313759 -1.25495,-0.862791 -1.77027,-1.220073 -1.13341,-0.785831 -4.80677,-2.735542 -6.01981,-3.195125 -4.11073,-1.557455 -6.55478,-2.138423 -10.45989,-2.486393 -4.98151,-0.443883 -10.90083,0.447578 -15.58331,2.346882 -8.04698,3.264005 -14.17311,8.725615 -18.13278,16.165852 -2.5824,4.852348 -3.79602,9.149732 -4.14047,14.661254 -0.1888,3.020926 -0.18965,3.007596 0.53116,8.255386 0.69139,5.03354 3.96782,11.97696 7.74665,16.416668 4.01945,4.72242 8.92754,8.10489 15.10668,10.41094 2.54086,0.94824 4.58084,1.4163 8.30541,1.90562 1.78186,0.23409 5.05841,0.20028 7.30613,-0.0754 z M 122.51043,93.865662 c -2.02619,-0.31665 -2.50334,-1.32276 -2.12117,-4.47269 0.24886,-2.05118 0.33206,-2.68882 0.89621,-6.86843 0.19179,-1.42083 0.4191,-3.108334 0.50514,-3.749998 0.0861,-0.641668 0.27364,-1.991666 0.41689,-2.999996 0.14323,-1.008334 0.3309,-2.345387 0.41701,-2.971234 0.24478,-1.779063 0.4688,-2.414576 1.09567,-3.108449 0.85354,-0.944771 1.68846,-1.171043 4.30481,-1.166647 1.77681,0.003 2.3069,0.06189 2.87398,0.319366 1.23366,0.560122 1.549,1.540389 1.24551,3.871764 -0.0994,0.763695 -0.22757,1.782285 -0.28478,2.263532 l -0.10402,0.875002 h -1.83576 c -1.81893,0 -1.83494,-0.0033 -1.74699,-0.374999 0.18497,-0.781421 0.31088,-2.600671 0.20343,-2.939226 -0.1475,-0.464759 -0.6864,-0.739393 -1.1986,-0.610837 -0.49957,0.125385 -1.22004,1.549467 -1.22249,2.416414 -0.001,0.316076 -0.0908,1.191329 -0.19977,1.945008 -0.26187,1.81128 -0.2278,1.848777 1.74706,1.922794 1.81901,0.06817 2.70206,0.435387 3.17174,1.318945 0.25786,0.485092 0.28966,0.824857 0.20951,2.238561 -0.052,0.91667 -0.24271,2.71666 -0.42389,4 -0.18117,1.28332 -0.41543,2.97082 -0.52057,3.74999 -0.10515,0.77916 -0.25808,1.68952 -0.33985,2.02301 -0.19168,0.78174 -1.27897,1.89985 -2.09356,2.1529 -0.78858,0.24497 -3.8395,0.34588 -4.99551,0.16522 z m 3.13494,-3.52121 c 0.55671,-0.29795 0.80311,-1.19217 1.23923,-4.49749 0.42351,-3.20968 0.40565,-3.64767 -0.16425,-4.02821 -0.32895,-0.21964 -1.38567,-0.13585 -1.60398,0.1272 -0.11628,0.14011 -0.34889,1.32136 -0.5169,2.625 -0.16801,1.30363 -0.38085,2.95868 -0.47298,3.67787 -0.1677,1.30913 -0.0707,1.83799 0.39376,2.14816 0.26495,0.17691 0.73764,0.15484 1.12512,-0.0525 z m 8.78093,3.52281 c -1.93786,-0.37742 -2.28862,-1.44652 -1.78023,-5.42606 l 0.23421,-1.83334 1.80891,-0.0475 1.80891,-0.0475 -0.10924,0.68311 c -0.33255,2.07969 -0.32489,2.60563 0.0433,2.97379 0.38225,0.38225 0.86326,0.45124 1.34575,0.19302 0.40838,-0.21856 0.78568,-1.21568 0.91741,-2.42451 0.0598,-0.54836 0.19134,-1.50046 0.29241,-2.11578 0.25146,-1.53095 0.15467,-1.62814 -1.59215,-1.59881 -2.27511,0.0382 -3.44584,-0.57877 -3.7034,-1.95165 -0.11165,-0.59516 -0.0766,-0.95059 0.67355,-6.830759 0.66518,-5.214186 0.91731,-5.848754 2.61386,-6.578583 0.79517,-0.342076 1.068,-0.367563 3.29551,-0.307866 1.59401,0.04272 2.56572,0.14108 2.82771,0.286233 1.12508,0.623331 1.52739,1.866029 1.20921,3.73513 -0.0966,0.567467 -0.25852,1.669255 -0.35979,2.448422 -0.10127,0.779163 -0.24917,1.904162 -0.32866,2.499999 -0.0795,0.595827 -0.22549,1.720826 -0.32444,2.499993 -0.099,0.779171 -0.32518,2.466661 -0.50271,3.749991 -0.17755,1.28334 -0.48297,3.53333 -0.67874,5 -0.40659,3.04627 -0.71013,3.84895 -1.70439,4.50693 -0.35852,0.23725 -1.07734,0.50106 -1.59741,0.58625 -1.07782,0.17654 -3.482,0.1763 -4.38954,-4.8e-4 z m 5.14873,-13.21772 c 0.16779,-0.21546 1.05368,-6.623944 1.04829,-7.583324 -0.003,-0.604379 -0.4935,-1.208332 -0.98056,-1.208332 -0.50181,0 -1.11502,0.595138 -1.31923,1.280341 -0.23287,0.781369 -0.68317,3.993931 -0.81575,5.819827 -0.0932,1.283021 -0.0785,1.363846 0.29432,1.624998 0.46229,0.32381 1.54106,0.36426 1.77293,0.0665 z m 7.37445,13.22244 c -1.50663,-0.21087 -2.20623,-0.79302 -2.41124,-2.00645 -0.0925,-0.54765 0.14779,-3.1315 0.51612,-5.54933 l 0.0952,-0.625 h 1.75856 1.75856 l -0.10933,0.875 c -0.31479,2.51951 -0.32198,3.38296 -0.0306,3.67434 0.28993,0.28993 0.85269,0.36594 1.33605,0.18046 0.4965,-0.19053 0.73742,-0.99412 1.16104,-3.87248 0.53586,-3.64106 0.44012,-4.01613 -1.02645,-4.02143 l -0.70621,-0.002 0.10801,-1.29167 c 0.17108,-2.045914 0.20555,-2.11635 1.06549,-2.177748 1.24496,-0.08888 1.65838,-0.712832 1.89759,-2.863905 0.0561,-0.504169 0.18289,-1.384595 0.28182,-1.956503 0.21678,-1.253148 0.10697,-1.783443 -0.44413,-2.144534 -0.34594,-0.226663 -0.49605,-0.238346 -0.90201,-0.07019 -0.64859,0.268644 -0.99005,1.159005 -1.1629,3.03216 -0.0753,0.815852 -0.171,1.517492 -0.2127,1.559195 -0.14073,0.140726 -3.21706,0.252793 -3.40623,0.124086 -0.13184,-0.0897 -0.14412,-0.424313 -0.0413,-1.127554 0.0804,-0.549996 0.22056,-1.562497 0.31152,-2.249997 0.33693,-2.546817 0.4827,-2.99093 1.22501,-3.732137 0.91244,-0.911078 1.62721,-1.101188 4.14024,-1.101188 4.21242,0 4.70935,0.632773 4.12285,5.249994 -0.17465,1.374999 -0.35958,2.837495 -0.41095,3.249997 -0.20302,1.63024 -0.4651,2.936968 -0.67065,3.344074 -0.1277,0.2529 -0.17901,0.70176 -0.12567,1.09937 0.0816,0.60831 -0.12335,2.44444 -0.87139,7.80654 -0.40535,2.90566 -0.83909,3.71687 -2.3255,4.34929 -0.75785,0.32243 -3.42798,0.4571 -4.92078,0.24816 z m 11.75412,-0.003 c -2.05803,-0.50102 -2.35979,-1.40492 -1.82304,-5.46061 0.31261,-2.36209 0.48391,-3.67737 0.80966,-6.21686 0.13524,-1.05417 0.28577,-2.141662 0.33455,-2.41666 0.0488,-0.275003 0.2446,-1.700001 0.43519,-3.166664 0.48175,-3.707386 0.825,-5.765577 1.02771,-6.16227 0.35582,-0.696297 1.21697,-1.422294 1.99269,-1.679952 1.06119,-0.352466 5.13628,-0.288491 5.8749,0.09223 0.92015,0.474292 1.18165,1.039472 1.18165,2.553885 0,0.749526 -0.10463,2.056528 -0.23251,2.90444 l -0.23249,1.541667 h -1.79161 -1.79162 l 0.14516,-0.625001 c 0.20015,-0.861896 0.18912,-2.496214 -0.0195,-2.885953 -0.1123,-0.209854 -0.34884,-0.322375 -0.67763,-0.322375 -1.0731,0 -1.2775,0.335608 -1.66007,2.725768 -0.11525,0.720009 -0.21635,1.770007 -0.22468,2.333331 l -0.0152,1.024227 1.66666,0.103233 c 1.742,0.107901 2.63073,0.373119 3.12999,0.934067 0.30861,0.346733 0.67671,2.104847 0.5345,2.552897 -0.087,0.27396 -0.15385,0.75151 -0.81627,5.82646 -0.49668,3.80529 -0.63807,4.37493 -1.29042,5.19875 -0.75985,0.95962 -1.88714,1.30519 -4.18904,1.28418 -1.02782,-0.009 -2.09375,-0.0718 -2.36875,-0.13879 z m 3.25921,-3.51575 c 0.49425,-0.26452 0.76114,-0.94859 0.97345,-2.49506 0.10699,-0.77917 0.26794,-1.94166 0.35769,-2.58333 0.29485,-2.10812 0.26893,-2.95022 -0.10226,-3.32142 -0.3224,-0.32241 -1.4611,-0.34567 -1.71884,-0.0351 -0.22691,0.27341 -0.74094,3.93901 -0.96329,6.86952 -0.073,0.96232 -0.0382,1.231 0.18916,1.45833 0.31727,0.31726 0.79565,0.35778 1.26409,0.10707 z"
       style="fill:#deb200;stroke-width:0.166667" />
    <g
       aria-label="Webdashboard"
       id="text5031"
       style="font-style:normal;font-weight:normal;font-size:42.3333px;line-height:1.25;font-family:sans-serif;fill:#0098cb;fill-opacity:1;stroke:#0098cb;stroke-width:0.265;stroke-miterlimit:4;stroke-dasharray:none;stroke-opacity:1">
      <path
         d="m 40.261561,154.79632 v 20.31915 q 0,3.80339 -2.294432,6.20117 -2.294432,2.39779 -5.93245,2.39779 -4.382158,0 -6.69726,-3.98942 -1.426269,2.14974 -3.059243,3.07991 -1.632974,0.90951 -4.030759,0.90951 -3.803382,0 -5.829097,-2.39779 -2.025714,-2.39778 -2.025714,-6.90396 v -19.61636 h 8.392246 v 18.35545 q 0,1.36426 0.206705,1.79834 0.227377,0.43408 0.888834,0.43408 1.240234,0 1.240234,-2.08772 v -18.50015 h 8.392246 v 18.35545 q 0,1.32292 0.227376,1.77767 0.227376,0.45475 0.888834,0.45475 1.240234,0 1.240234,-2.23242 v -18.35545 z"
         style="font-style:normal;font-variant:normal;font-weight:normal;font-stretch:normal;font-size:42.3333px;font-family:'Bauhaus 93';-inkscape-font-specification:'Bauhaus 93, ';text-align:center;text-anchor:middle;fill:#0098cb;fill-opacity:1;stroke:#0098cb;stroke-width:0.265;stroke-miterlimit:4;stroke-dasharray:none;stroke-opacity:1"
         id="path851" />
      <path
         d="M 65.024889,173.95792 H 53.304683 q -0.268717,-0.88883 -0.268717,-1.63297 0,-1.03353 0.37207,-2.02572 h 3.927406 q -0.413411,-2.29443 -2.58382,-2.29443 -1.446939,0 -2.356443,1.24024 -0.909505,1.21956 -0.909505,3.14192 0,2.00504 0.868163,3.24528 0.888834,1.24023 2.315103,1.24023 1.157551,0 2.23242,-1.15755 l 4.402829,5.29166 q -3.079913,2.41846 -6.841955,2.41846 -4.588863,0 -7.710118,-3.07991 -3.121254,-3.07992 -3.121254,-7.62744 0,-4.52685 3.141925,-7.64811 3.162595,-3.12125 7.751459,-3.12125 4.485511,0 7.524083,3.05924 3.059242,3.03857 3.059242,7.50341 0,0.45476 -0.08268,1.44694 z"
         style="font-style:normal;font-variant:normal;font-weight:normal;font-stretch:normal;font-size:42.3333px;font-family:'Bauhaus 93';-inkscape-font-specification:'Bauhaus 93, ';text-align:center;text-anchor:middle;fill:#0098cb;fill-opacity:1;stroke:#0098cb;stroke-width:0.265;stroke-miterlimit:4;stroke-dasharray:none;stroke-opacity:1"
         id="path853" />
      <path
         d="m 75.504862,154.79632 v 16.88784 q 0,4.11344 2.955889,4.11344 1.260904,0 2.129068,-0.84749 0.888834,-0.86816 0.888834,-2.08773 0,-1.2609 -0.826823,-2.10839 -0.826822,-0.86817 -2.025714,-0.86817 -0.847493,0 -1.943033,0.74414 v -8.51627 q 1.364257,-0.12402 2.067056,-0.12402 4.361488,0 7.462071,3.14193 3.121254,3.14192 3.121254,7.56542 0,4.52685 -3.162595,7.62743 -3.162595,3.10059 -7.772129,3.10059 -2.315103,0 -4.526852,-1.01286 -2.19108,-1.01286 -3.617348,-2.72851 -2.480467,-2.97656 -2.480467,-7.71012 v -17.17723 z"
         style="font-style:normal;font-variant:normal;font-weight:normal;font-stretch:normal;font-size:42.3333px;font-family:'Bauhaus 93';-inkscape-font-specification:'Bauhaus 93, ';text-align:center;text-anchor:middle;fill:#0098cb;fill-opacity:1;stroke:#0098cb;stroke-width:0.265;stroke-miterlimit:4;stroke-dasharray:none;stroke-opacity:1"
         id="path855" />
      <path
         d="m 105.41515,154.79632 h 7.73079 v 17.17723 q 0,4.73356 -2.48046,7.71012 -1.42627,1.71565 -3.63802,2.72851 -2.19108,1.01286 -4.50618,1.01286 -4.609539,0 -7.772134,-3.10059 -3.162595,-3.10058 -3.162595,-7.60676 0,-4.36149 3.141924,-7.54475 3.141925,-3.18327 7.441405,-3.18327 0.68212,0 2.06705,0.12402 v 8.51627 q -0.95084,-0.74414 -1.90169,-0.74414 -1.19889,0 -2.06706,0.88884 -0.847488,0.86816 -0.847488,2.10839 0,1.1989 0.888838,2.06706 0.88883,0.84749 2.12906,0.84749 2.97656,0 2.97656,-4.11344 z"
         style="font-style:normal;font-variant:normal;font-weight:normal;font-stretch:normal;font-size:42.3333px;font-family:'Bauhaus 93';-inkscape-font-specification:'Bauhaus 93, ';text-align:center;text-anchor:middle;fill:#0098cb;fill-opacity:1;stroke:#0098cb;stroke-width:0.265;stroke-miterlimit:4;stroke-dasharray:none;stroke-opacity:1"
         id="path857" />
      <path
         d="m 128.66953,175.28084 v 7.9995 q -0.95084,0.16537 -1.73632,0.16537 -4.65088,0 -7.75146,-3.05924 -3.10059,-3.05925 -3.10059,-7.66878 0,-4.48551 3.12126,-7.60677 3.14192,-3.12125 7.62743,-3.12125 5.00228,0 7.87549,2.93522 2.89387,2.91455 2.89387,7.97883 v 10.10791 h -7.73078 v -9.5498 q 0,-1.63297 -0.80616,-2.60449 -0.78548,-0.97152 -2.12906,-0.97152 -1.21957,0 -2.1084,0.88884 -0.88883,0.88883 -0.88883,2.10839 0,1.28158 0.80615,2.1084 0.80615,0.82682 2.04638,0.82682 1.01286,0 1.88102,-0.53743 z"
         style="font-style:normal;font-variant:normal;font-weight:normal;font-stretch:normal;font-size:42.3333px;font-family:'Bauhaus 93';-inkscape-font-specification:'Bauhaus 93, ';text-align:center;text-anchor:middle;fill:#0098cb;fill-opacity:1;stroke:#0098cb;stroke-width:0.265;stroke-miterlimit:4;stroke-dasharray:none;stroke-opacity:1"
         id="path859" />
      <path
         d="m 155.0245,162.69247 v 8.1442 q -1.63297,0 -2.25309,0.62012 -0.59944,0.59944 -0.76481,2.39778 -0.53743,5.97379 -4.6302,8.43359 -2.17041,1.28157 -6.15983,1.28157 h -1.07487 v -8.18554 h 0.3514 q 1.86035,0 2.64583,-0.76481 0.80615,-0.78548 0.93018,-2.72851 0.16536,-3.1626 0.57877,-4.44417 0.43408,-1.28158 1.73633,-2.54248 2.27376,-2.21175 6.30452,-2.21175 z"
         style="font-style:normal;font-variant:normal;font-weight:normal;font-stretch:normal;font-size:42.3333px;font-family:'Bauhaus 93';-inkscape-font-specification:'Bauhaus 93, ';text-align:center;text-anchor:middle;fill:#0098cb;fill-opacity:1;stroke:#0098cb;stroke-width:0.265;stroke-miterlimit:4;stroke-dasharray:none;stroke-opacity:1"
         id="path861" />
      <path
         d="m 165.2771,154.79632 v 8.61962 q 1.9637,-1.42627 3.9274,-1.42627 2.97656,0 4.71289,2.14974 1.757,2.14974 1.757,5.80842 v 13.0638 h -7.73079 v -10.89339 q 0,-1.32291 -0.28939,-1.77766 -0.26872,-0.45476 -1.07487,-0.45476 -1.30224,0 -1.30224,1.92237 v 11.20344 h -7.73079 v -28.21531 z"
         style="font-style:normal;font-variant:normal;font-weight:normal;font-stretch:normal;font-size:42.3333px;font-family:'Bauhaus 93';-inkscape-font-specification:'Bauhaus 93, ';text-align:center;text-anchor:middle;fill:#0098cb;fill-opacity:1;stroke:#0098cb;stroke-width:0.265;stroke-miterlimit:4;stroke-dasharray:none;stroke-opacity:1"
         id="path863" />
      <path
         d="m 187.45661,154.79632 v 16.88784 q 0,4.11344 2.95589,4.11344 1.2609,0 2.12906,-0.84749 0.88884,-0.86816 0.88884,-2.08773 0,-1.2609 -0.82683,-2.10839 -0.82682,-0.86817 -2.02571,-0.86817 -0.84749,0 -1.94303,0.74414 v -8.51627 q 1.36425,-0.12402 2.06705,-0.12402 4.36149,0 7.46207,3.14193 3.12126,3.14192 3.12126,7.56542 0,4.52685 -3.1626,7.62743 -3.16259,3.10059 -7.77213,3.10059 -2.3151,0 -4.52685,-1.01286 -2.19108,-1.01286 -3.61735,-2.72851 -2.48046,-2.97656 -2.48046,-7.71012 v -17.17723 z"
         style="font-style:normal;font-variant:normal;font-weight:normal;font-stretch:normal;font-size:42.3333px;font-family:'Bauhaus 93';-inkscape-font-specification:'Bauhaus 93, ';text-align:center;text-anchor:middle;fill:#0098cb;fill-opacity:1;stroke:#0098cb;stroke-width:0.265;stroke-miterlimit:4;stroke-dasharray:none;stroke-opacity:1"
         id="path865" />
      <path
         d="m 214.45234,161.969 q 4.38216,0 7.50341,3.1626 3.14193,3.14192 3.14193,7.54475 0,4.46484 -3.18327,7.60676 -3.16259,3.14193 -7.6481,3.14193 -4.48551,0 -7.66878,-3.14193 -3.18327,-3.16259 -3.18327,-7.60676 0,-4.52685 3.18327,-7.60677 3.18327,-3.10058 7.85481,-3.10058 z m -0.2067,7.62744 q -1.24024,0 -2.1084,0.9095 -0.86816,0.88883 -0.86816,2.19108 0,1.28157 0.86816,2.19108 0.88883,0.9095 2.1084,0.9095 1.24023,0 2.10839,-0.9095 0.88884,-0.90951 0.88884,-2.19108 0,-1.30225 -0.86817,-2.19108 -0.86816,-0.9095 -2.12906,-0.9095 z"
         style="font-style:normal;font-variant:normal;font-weight:normal;font-stretch:normal;font-size:42.3333px;font-family:'Bauhaus 93';-inkscape-font-specification:'Bauhaus 93, ';text-align:center;text-anchor:middle;fill:#0098cb;fill-opacity:1;stroke:#0098cb;stroke-width:0.265;stroke-miterlimit:4;stroke-dasharray:none;stroke-opacity:1"
         id="path867" />
      <path
         d="m 239.77378,175.28084 v 7.9995 q -0.95084,0.16537 -1.73632,0.16537 -4.65088,0 -7.75146,-3.05924 -3.10059,-3.05925 -3.10059,-7.66878 0,-4.48551 3.12126,-7.60677 3.14192,-3.12125 7.62743,-3.12125 5.00228,0 7.87548,2.93522 2.89388,2.91455 2.89388,7.97883 v 10.10791 h -7.73079 v -9.5498 q 0,-1.63297 -0.80615,-2.60449 -0.78548,-0.97152 -2.12906,-0.97152 -1.21957,0 -2.1084,0.88884 -0.88884,0.88883 -0.88884,2.10839 0,1.28158 0.80616,2.1084 0.80615,0.82682 2.04638,0.82682 1.01286,0 1.88102,-0.53743 z"
         style="font-style:normal;font-variant:normal;font-weight:normal;font-stretch:normal;font-size:42.3333px;font-family:'Bauhaus 93';-inkscape-font-specification:'Bauhaus 93, ';text-align:center;text-anchor:middle;fill:#0098cb;fill-opacity:1;stroke:#0098cb;stroke-width:0.265;stroke-miterlimit:4;stroke-dasharray:none;stroke-opacity:1"
         id="path869" />
      <path
         d="m 264.51643,162.19638 v 8.26822 q -0.80615,-0.45475 -1.46761,-0.45475 -2.10839,0 -2.10839,3.2246 v 9.77718 h -7.73079 v -11.26546 q 0,-4.46484 2.43912,-7.11067 2.43913,-2.6665 6.51123,-2.6665 0.9095,0 2.35644,0.22738 z"
         style="font-style:normal;font-variant:normal;font-weight:normal;font-stretch:normal;font-size:42.3333px;font-family:'Bauhaus 93';-inkscape-font-specification:'Bauhaus 93, ';text-align:center;text-anchor:middle;fill:#0098cb;fill-opacity:1;stroke:#0098cb;stroke-width:0.265;stroke-miterlimit:4;stroke-dasharray:none;stroke-opacity:1"
         id="path871" />
      <path
         d="m 279.48191,154.79632 h 7.73079 v 17.17723 q 0,4.73356 -2.48047,7.71012 -1.42627,1.71565 -3.63802,2.72851 -2.19107,1.01286 -4.50618,1.01286 -4.60953,0 -7.77213,-3.10059 -3.16259,-3.10058 -3.16259,-7.60676 0,-4.36149 3.14192,-7.54475 3.14193,-3.18327 7.4414,-3.18327 0.68213,0 2.06706,0.12402 v 8.51627 q -0.95085,-0.74414 -1.90169,-0.74414 -1.19889,0 -2.06706,0.88884 -0.84749,0.86816 -0.84749,2.10839 0,1.1989 0.88883,2.06706 0.88884,0.84749 2.12907,0.84749 2.97656,0 2.97656,-4.11344 z"
         style="font-style:normal;font-variant:normal;font-weight:normal;font-stretch:normal;font-size:42.3333px;font-family:'Bauhaus 93';-inkscape-font-specification:'Bauhaus 93, ';text-align:center;text-anchor:middle;fill:#0098cb;fill-opacity:1;stroke:#0098cb;stroke-width:0.265;stroke-miterlimit:4;stroke-dasharray:none;stroke-opacity:1"
         id="path873" />
    </g>
  </g>
</svg>
