<?xml version="1.0" encoding="UTF-8" standalone="no"?>
<!-- Created with Inkscape (http://www.inkscape.org/) -->

<svg
   xmlns:dc="http://purl.org/dc/elements/1.1/"
   xmlns:cc="http://creativecommons.org/ns#"
   xmlns:rdf="http://www.w3.org/1999/02/22-rdf-syntax-ns#"
   xmlns:svg="http://www.w3.org/2000/svg"
   xmlns="http://www.w3.org/2000/svg"
   xmlns:sodipodi="http://sodipodi.sourceforge.net/DTD/sodipodi-0.dtd"
   xmlns:inkscape="http://www.inkscape.org/namespaces/inkscape"
   version="1.1"
   id="svg9621"
   width="957.69427"
   height="957.1568"
   viewBox="0 0 957.69427 957.1568"
   sodipodi:docname="vaultLogo.svg"
   inkscape:version="0.92.2 (5c3e80d, 2017-08-06)">
  <metadata
     id="metadata9627">
    <rdf:RDF>
      <cc:Work
         rdf:about="">
        <dc:format>image/svg+xml</dc:format>
        <dc:type
           rdf:resource="http://purl.org/dc/dcmitype/StillImage" />
        <dc:title></dc:title>
      </cc:Work>
    </rdf:RDF>
  </metadata>
  <defs
     id="defs9625" />
  <sodipodi:namedview
     pagecolor="#ffffff"
     bordercolor="#666666"
     borderopacity="1"
     objecttolerance="10"
     gridtolerance="10"
     guidetolerance="10"
     inkscape:pageopacity="0"
     inkscape:pageshadow="2"
     inkscape:window-width="1920"
     inkscape:window-height="1138"
     id="namedview9623"
     showgrid="false"
     inkscape:zoom="0.41053452"
     inkscape:cx="1272.5067"
     inkscape:cy="239.95825"
     inkscape:window-x="-8"
     inkscape:window-y="-8"
     inkscape:window-maximized="1"
     inkscape:current-layer="svg9621" />
  <path
     inkscape:connector-curvature="0"
     id="path9633"
     d="m 466.78359,955.86395 c -2.7736,-1.618 -4.1535,-5.3069 -21.0373,-56.2394 -11.7887,-35.5622 -14.107,-41.4071 -17.5847,-44.3333 -2.2032,-1.8539 -4.4097,-3.3797 -4.9035,-3.3906 -0.4937,-0.011 -11.3977,-2.4104 -24.231,-5.3319 -24.5287,-5.5841 -30.3205,-6.2254 -35.0877,-3.8851 -1.6017,0.7863 -18.5123,17.3006 -37.579,36.6983 -33.3369,33.9157 -34.8604,35.2674 -39.718,35.237 -3.9893,-0.025 -11.8255,-3.8486 -37.2691,-18.1848 -41.4587,-23.36 -42.1082,-23.7834 -43.2357,-28.1811 -0.6667,-2.6003 2.6387,-17.8866 11.3724,-52.593 l 12.3123,-48.92714 -2.6944,-5.2814 c -4.2053,-8.24319 -38.07671,-42.54823 -43.48467,-44.04143 -3.54893,-0.97991 -9.24026,-0.15224 -27.54466,4.00573 -51.62198,11.72628 -70.77383,15.83807 -73.77052,15.83807 -1.73374,0 -4.63714,-1.35 -6.452,-3 -1.81486,-1.65 -11.52695,-19.11543 -21.5824,-38.81207 -20.93091,-40.99944 -21.56294,-43.30056 -13.91066,-50.64728 2.55427,-2.45225 18.92075,-17.83343 36.36998,-34.18036 31.08254,-29.11901 35.60746,-34.22368 35.60746,-40.16964 0,-5.84352 -8.36364,-48.61257 -10.21377,-52.23003 -2.348266,-4.59145 -10.94845,-8.70833 -40.45289,-19.36465 -12.1,-4.37024 -30.9311,-11.16716 -41.84688,-15.10427 L 0,476.58721 0.73558,459.90634 c 0.40458,-9.17448 2.38808,-30.41008 4.4078,-47.19024 3.1303,-26.007 4.09139,-30.99668 6.51266,-33.81157 3.10868,-3.61405 4.41844,-3.93589 44.70438,-10.98503 47.47207,-8.30652 54.11422,-9.70677 59.31396,-12.50413 5.039,-2.71089 5.81916,-4.05211 15.07775,-25.92121 8.84713,-20.89724 9.63085,-23.46195 8.34775,-27.31802 -0.77882,-2.34058 -6.60898,-11.1556 -12.95592,-19.58893 -6.34694,-8.43333 -19.54471,-25.93716 -29.328376,-38.89739 C 82.08161,224.17202 79.02709,219.34606 79.02709,215.58504 c 0,-4.79012 -1.76244,-2.38606 37.87576,-51.6645 20.73131,-25.77326 20.26097,-25.33333 27.08319,-25.33333 3.18634,0 8.02409,0.97137 10.75054,2.15861 5.66328,2.4661 33.98099,14.19059 42.95718,17.78574 3.30003,1.32172 14.06703,5.77494 23.92683,9.89605 9.8598,4.12112 19.0297,7.49293 20.3777,7.49293 3.4536,0 13.0445,-5.36254 27.0288,-15.1125 14.9518,-10.42451 16.9755,-13.83036 15.9763,-26.8875 -0.3928,-5.13333 -1.6095,-21.33333 -2.7038,-36.000003 -1.0943,-14.666657 -2.57,-32.499417 -3.2793,-39.628337 -1.4218,-14.2896 -0.5628,-18.59275 4.2228,-21.15394 6.731,-3.60232 86.0825,-29.2177202 90.5107,-29.2177202 6.6205,0 9.1989,2.9646402 33.4157,38.4206602 21.7871,31.8987 24.5478,35.82053 26.7703,38.02946 1.2352,1.22779 2.6289,3.43884 3.0969,4.91347 0.468,1.47463 3.0707,3.81359 5.7838,5.19768 4.3384,2.21329 7.018,2.43024 22.2364,1.80028 19.4274,-0.80419 23.4065,-2.12323 26.04,-8.632 0.9784,-2.41792 2.1416,-4.69621 2.585,-5.06288 0.4434,-0.36667 5.7567,-9.96667 11.8073,-21.33333 6.0507,-11.36667 11.569,-21.56667 12.263,-22.66667 0.6941,-1.1 4.5201,-8.35079 8.5023,-16.11287 3.9822,-7.76208 8.8998,-16.0850106 10.9281,-18.4954006 3.5374,-4.20405004 3.9894,-4.35361004 11.0994,-3.67214004 6.0579,0.58064 64.4286,13.94426064 86.345,19.76818064 10.296,2.73596 10.2072,2.42224 11.9693,42.31752 0.8631,19.54043 1.6383,42.12804 1.7225,50.19471 0.1831,17.50604 1.7611,21.3726 11.1538,27.32927 10.9178,6.92384 24.6444,13.3374 28.5452,13.3374 3.2649,0 34.2877,-16.47416 78.6297,-41.75492 18.2013,-10.37718 16.8667,-10.92115 46.0193,18.75492 40.2366,40.9589 45.0274,46.34104 45.0242,50.58224 0,3.48448 -4.6315,11.71042 -39.2503,69.75109 -10.5313,17.65632 -12.7469,21.96955 -12.7469,24.81485 0,1.25435 4.0386,9.77923 8.9748,18.94419 11.438,21.23667 10.3477,20.69323 45.6918,22.77737 46.13363,2.72038 68.59903,4.25242 71.64993,4.8862 4.7624,0.98938 6.6855,5.46224 10.8693,25.2825 7.8059,36.97813 9.6514,45.47084 12.2118,56.19781 3.5913,15.04597 3.4732,22.47032 -0.3976,24.98319 -1.65,1.07117 -22.4556,11.82397 -46.2348,23.8951 -38.3767,19.48135 -43.4896,22.44967 -45.503,26.41648 -1.4777,2.91136 -2.74523,10.49672 -3.63663,21.7633 -1.9028,24.04686 -1.9532,23.94616 20.18163,40.3007 9.6393,7.12211 26.8261,19.81162 38.1928,28.19888 26.7873,19.7659 28,20.91944 28,26.6344 0,2.52784 -4.1414,15.76559 -9.2031,29.41722 -5.0616,13.65162 -11.7705,32.02114 -14.9085,40.82114 -6.9767,19.56412 -8.8731,22 -17.1279,22 -5.924,0 -34.1264,-2.77297 -75.64833,-7.43801 -19.7412,-2.21796 -20.3266,-2.21077 -24.6666,0.30264 -7.2096,4.17521 -31.779,38.16161 -31.779,43.95931 0,1.7825 7.8,23.79812 17.3334,48.92363 17.1394,45.17184 19.1882,52.65844 15.6666,57.24844 -0.9166,1.1948 -17.16,13.9095 -36.0964,28.2549 -30.3765,23.012 -35.0069,26.0792 -39.3333,26.0546 -4.3672,-0.025 -8.4041,-2.8626 -36.9036,-25.9412 -37.9065,-30.6964 -46.312,-36.6976 -51.3999,-36.6976 -3.64,0 -40.2642,13.3446 -48.9466,17.8344 -2.3512,1.2159 -5.1964,3.9924 -6.3224,6.1701 -1.1262,2.1776 -4.7646,17.0175 -8.0855,32.9774 -3.3208,15.96 -7.4612,35.6181 -9.2008,43.6847 -1.7395,8.0666 -3.5573,16.6093 -4.0395,18.9837 -1.2628,6.2183 -5.7748,9.1438 -15.5978,10.1132 -4.6242,0.4563 -17.7075,1.7444 -29.0742,2.8624 -23.2993,2.2917 -50.2038,2.6185 -53.5768,0.6508 z m 44.026,-198.01411 c 33.4754,-4.1055 63.1986,-13.00186 93.0048,-27.83696 36.7022,-18.26736 64.251,-39.77152 91.1824,-71.17536 38.2083,-44.55354 63.6223,-109.53806 65.8591,-168.40436 1.2257,-32.25738 -4.7632,-75.77574 -13.7409,-99.84595 -11.7198,-31.42241 -20.276,-48.71693 -34.9136,-70.57025 -16.9271,-25.27127 -43.8614,-53.51867 -64.5076,-67.65235 -3.6667,-2.51007 -10.0396,-6.90233 -14.1622,-9.7606 -9.0673,-6.28665 -38.4542,-21.88436 -48.1585,-25.56103 -32.8859,-12.45965 -52.4384,-17.10741 -83.6793,-19.89117 -39.8522,-3.55107 -87.2068,3.58063 -124.6667,18.77508 -64.3759,26.11208 -113.385,69.80501 -145.0624,129.32699 -20.6592,38.81882 -30.3682,73.19794 -33.1238,117.2902 -1.51037,24.16742 -1.51724,24.06078 4.2493,66.04313 5.5311,40.26841 31.7426,95.8158 61.9733,131.33333 32.1556,37.77926 71.4204,64.83891 120.8536,83.28728 20.3269,7.58594 36.6467,11.3304 66.4433,15.24499 14.2549,1.8727 40.4674,1.6023 58.4492,-0.60297 z M 302.14809,575.98298 c -16.2096,-2.53318 -20.0268,-10.58209 -16.9694,-35.78154 1.9909,-16.40947 2.6565,-21.51064 7.1697,-54.94756 1.5343,-11.36667 3.3528,-24.86667 4.0411,-30 0.6884,-5.13334 2.1891,-15.93334 3.3351,-24 1.1459,-8.06667 2.6472,-18.76311 3.3361,-23.76988 1.9583,-14.23255 3.7504,-19.31664 8.7654,-24.86766 6.8283,-7.55817 13.5077,-9.36834 34.4385,-9.33318 14.2145,0.0239 18.4552,0.49513 22.9919,2.55494 9.8693,4.48098 12.392,12.32311 9.9641,30.97414 -0.7954,6.10957 -1.8206,14.2583 -2.2783,18.1083 l -0.8321,7 h -14.6861 c -14.5515,0 -14.6796,-0.0275 -13.976,-3 1.4798,-6.25136 2.4871,-20.80537 1.6275,-23.51382 -1.18,-3.71806 -5.4912,-5.91514 -9.5888,-4.88672 -3.9966,1.0031 -9.7604,12.39577 -9.78,19.33134 -0.01,2.52862 -0.7263,9.53066 -1.5981,15.56011 -2.095,14.49023 -1.8224,14.79024 13.9765,15.38236 14.5521,0.5454 21.6165,3.48309 25.3739,10.55157 2.0629,3.88075 2.3173,6.59888 1.6761,17.9085 -0.4157,7.33333 -1.9417,21.73333 -3.3911,32 -1.4494,10.26666 -3.3235,23.76666 -4.1646,30 -0.8412,6.23333 -2.0646,13.51618 -2.7188,16.1841 -1.5334,6.2539 -10.2318,15.19882 -16.7485,17.22324 -6.3086,1.95979 -30.716,2.76703 -39.9641,1.32176 z m 25.0795,-28.16976 c 4.4537,-2.38356 6.4249,-9.53738 9.9139,-35.97996 3.3881,-25.67745 3.2452,-29.18137 -1.314,-32.22564 -2.6316,-1.75717 -11.0854,-1.08681 -12.8319,1.01755 -0.9302,1.12088 -2.7911,10.57088 -4.1352,21 -1.3441,10.42912 -3.0468,23.66948 -3.7838,29.42303 -1.3416,10.47302 -0.566,14.70394 3.1501,17.18526 2.1196,1.41528 5.9011,1.23874 9.0009,-0.42024 z m 70.2476,28.18254 c -15.5029,-3.01938 -18.309,-11.57219 -14.2419,-43.40855 l 1.8737,-14.66667 14.4713,-0.38025 14.4713,-0.38024 -0.8739,5.46485 c -2.6604,16.63754 -2.5992,20.84503 0.3461,23.79034 3.058,3.05804 6.906,3.60997 10.766,1.5442 3.267,-1.74847 6.2854,-9.72551 7.3393,-19.39615 0.478,-4.38684 1.5307,-12.00365 2.3392,-16.92623 2.0117,-12.24764 1.2374,-13.02512 -12.7372,-12.79053 -18.2009,0.30555 -27.5667,-4.63019 -29.6272,-15.61323 -0.8932,-4.76122 -0.6128,-7.60465 5.3884,-54.64609 5.3215,-41.71355 7.3385,-46.79011 20.9109,-52.62875 6.3614,-2.73661 8.544,-2.9405 26.3641,-2.46293 12.7521,0.34176 20.5258,1.12864 22.6217,2.28987 9.0007,4.98666 12.2192,14.92824 9.6737,29.88108 -0.7728,4.53973 -2.0681,13.35406 -2.8783,19.5874 -0.8102,6.23333 -1.9934,15.23333 -2.6293,20 -0.6359,4.76666 -1.8039,13.76666 -2.5955,20 -0.7916,6.23333 -2.6014,19.73333 -4.0217,30 -1.4204,10.26666 -3.8638,28.26666 -5.4299,40 -3.2527,24.3702 -5.6811,30.79169 -13.6352,36.05549 -2.8681,1.898 -8.6187,4.00848 -12.7792,4.68999 -8.6226,1.41238 -27.8561,1.41042 -35.1164,-0.004 z m 41.1899,-105.74188 c 1.3423,-1.7237 8.4294,-52.99163 8.3863,-60.66667 -0.027,-4.83503 -3.948,-9.66667 -7.8445,-9.66667 -4.0145,0 -8.9202,4.76112 -10.5539,10.24275 -1.8629,6.25095 -5.4653,31.95147 -6.526,46.55868 -0.7453,10.26419 -0.6282,10.91079 2.3546,13 3.6983,2.59044 12.3285,2.91408 14.1835,0.53191 z m 58.9957,105.77968 c -12.0531,-1.68698 -17.6499,-6.3442 -19.29,-16.05162 -0.7402,-4.38126 1.1823,-25.05201 4.129,-44.39473 l 0.7617,-5 h 14.0685 14.0685 l -0.8746,7 c -2.5184,20.15613 -2.5759,27.06371 -0.2449,29.39477 2.3194,2.31943 6.8215,2.92751 10.6884,1.44366 3.972,-1.5242 5.8994,-7.95292 9.2883,-30.97991 4.2869,-29.12847 3.521,-32.12904 -8.2116,-32.17144 l -5.6497,-0.0204 0.8641,-10.33334 c 1.3687,-16.36736 1.6444,-16.93086 8.524,-17.42204 9.9597,-0.71108 13.267,-5.70266 15.1807,-22.91129 0.4486,-4.03333 1.4631,-11.07675 2.2546,-15.65204 1.7342,-10.0252 0.8557,-14.26755 -3.5531,-17.15627 -2.7675,-1.81332 -3.9684,-1.90677 -7.2161,-0.5615 -5.1887,2.14917 -7.9204,9.27206 -9.3032,24.2573 -0.6022,6.52684 -1.368,12.13996 -1.7016,12.4736 -1.1258,1.12579 -25.7365,2.02232 -27.2499,0.99267 -1.0547,-0.71761 -1.1529,-3.39448 -0.3306,-9.02043 0.643,-4.4 1.7645,-12.5 2.4922,-18 2.6955,-20.37456 3.8616,-23.92748 9.8001,-29.85713 7.2995,-7.28865 13.0177,-8.80953 33.122,-8.80953 33.6994,0 37.6748,5.06218 32.9828,42 -1.3972,11 -2.8766,22.7 -3.2876,26 -1.6242,13.04196 -3.7208,23.49581 -5.3652,26.7526 -1.0216,2.02322 -1.4321,5.61412 -1.0054,8.795 0.6528,4.86654 -0.9868,19.55556 -6.9711,62.4524 -3.2428,23.24533 -6.7127,29.73501 -18.604,34.79436 -6.0628,2.5795 -27.4239,3.6568 -39.3663,1.98532 z m 94.033,-0.0264 c -16.4642,-4.00816 -18.8783,-11.23944 -14.5843,-43.68495 2.5009,-18.89675 3.8713,-29.41901 6.4773,-49.73496 1.0819,-8.43333 2.2862,-17.13333 2.6764,-19.33333 0.3902,-2.2 1.9568,-13.6 3.4815,-25.33334 3.854,-29.65912 6.6,-46.12468 8.2217,-49.29821 2.8466,-5.5704 9.7358,-11.37837 15.9416,-13.43964 8.4895,-2.81973 41.0903,-2.30793 46.9992,0.73785 7.3612,3.79436 9.4532,8.3158 9.4532,20.43111 0,5.99623 -0.837,16.45223 -1.86,23.23556 l -1.86,12.33333 h -14.3329 -14.3329 l 1.1612,-5 c 1.6012,-6.8952 1.513,-19.96973 -0.1556,-23.08765 -0.8984,-1.67883 -2.7907,-2.57901 -5.421,-2.57901 -8.5848,0 -10.22,2.68488 -13.2806,21.80618 -0.922,5.76007 -1.7308,14.16007 -1.7974,18.66667 l -0.1213,8.19381 13.3333,0.82588 c 13.936,0.86322 21.0458,2.98496 25.0399,7.47252 2.4689,2.7739 5.4137,16.83879 4.276,20.42318 -0.6956,2.19176 -1.2308,6.01214 -6.5301,46.61176 -3.9735,30.44241 -5.1046,34.99949 -10.3234,41.59009 -6.0788,7.67693 -15.0972,10.44155 -33.5124,10.27343 -8.2225,-0.0751 -16.75,-0.5747 -18.95,-1.11028 z m 26.0738,-28.1261 c 3.954,-2.11609 6.0891,-7.58873 7.7876,-19.96048 0.8559,-6.23333 2.1435,-15.53333 2.8615,-20.66666 2.3588,-16.86498 2.1515,-23.60184 -0.8181,-26.57143 -2.5792,-2.57923 -11.6888,-2.76531 -13.7507,-0.28088 -1.8153,2.18728 -5.9275,31.51215 -7.7064,54.95625 -0.5841,7.69862 -0.3053,9.848 1.5133,11.66667 2.5382,2.53807 6.3652,2.86221 10.1128,0.85653 z"
     style="fill:#deb200;stroke-width:1.33333337" />
</svg>
